#!OML:ASF E:\inclinewalkrobotboard\Project 1\Capture day 1\Session 1\subject1.ASF
:FULLY-SPECIFIED
:DEGREES
236
root 7.75411 19.9047 12.0413 -171.083 -1.07646 180.026
lowerback 1.7268 2.60078 -2.36697
upperback 2.6297 3.35256 1.35843
thorax 1.51387 1.58508 2.69922
lowerneck -6.13048 -1.08658 -3.54873
upperneck 21.1773 -3.42026 5.42292
head 7.64934 -1.90147 2.03139
rclavicle -2.98177e-014 -3.97569e-015
rhumerus -16.8176 -11.0756 -84.9585
rradius 35.2465
rwrist 1.90495
rhand -19.9692 -35.4854
rfingers 7.12502
rthumb 6.36953 -65.3697
lclavicle -2.98177e-014 -3.97569e-015
lhumerus -37.8493 14.6392 73.528
lradius 16.4363
lwrist -30.0664
lhand -25.991 -23.5122
lfingers 7.12502
lthumb 0.554399 6.46678
rfemur -7.39407 4.248 24.6776
rtibia 14.8893
rfoot -22.486 2.81477
rtoes -1.49323
lfemur -46.1956 -5.98189 -15.9678
ltibia 38.5299
lfoot -15.1168 2.98646
ltoes -32.9984
237
root 7.76583 19.8765 11.7748 -171.237 -0.576991 179.91
lowerback 1.65575 2.81674 -2.65381
upperback 2.66661 3.64652 1.13232
thorax 1.57025 1.72892 2.62877
lowerneck -5.68087 -1.12497 -3.55034
upperneck 20.9314 -3.5217 5.61851
head 7.49512 -1.94603 2.09022
rclavicle 1.14301e-014 -5.56597e-015
rhumerus -15.8668 -9.20567 -85.9858
rradius 36.4638
rwrist 0.903684
rhand -19.7558 -35.5354
rfingers 7.12502
rthumb 6.5756 -65.4133
lclavicle 1.14301e-014 -5.56597e-015
lhumerus -38.4531 14.8681 72.6576
lradius 16.2219
lwrist -30.2015
lhand -25.8723 -23.3528
lfingers 7.12502
lthumb 0.669083 6.62593
rfemur -5.71941 3.73099 24.5473
rtibia 14.0393
rfoot -22.8124 3.75141
rtoes -2.27092
lfemur -46.8539 -6.19863 -15.332
ltibia 34.4165
lfoot -14.1363 2.5632
ltoes -33.8831
238
root 7.77364 19.8414 11.5034 -171.338 -0.142665 179.95
lowerback 1.49643 2.87996 -2.81478
upperback 2.76831 3.73353 1.05793
thorax 1.75362 1.76446 2.6533
lowerneck -6.21613 -0.898139 -3.40416
upperneck 21.2346 -3.14704 5.31025
head 7.66647 -1.76684 1.9929
rclavicle 1.75924e-014 1.70955e-014
rhumerus -14.9614 -7.11029 -86.9162
rradius 37.6899
rwrist 0.250299
rhand -19.1105 -35.0447
rfingers 7.12502
rthumb 7.19844 -64.9022
lclavicle 1.75924e-014 1.70955e-014
lhumerus -39.0761 15.569 71.8591
lradius 15.9272
lwrist -30.3868
lhand -25.7699 -22.9487
lfingers 7.12502
lthumb 0.767949 7.0297
rfemur -4.15419 3.21002 24.5521
rtibia 13.3783
rfoot -23.1291 4.561
rtoes -3.95402
lfemur -47.4548 -6.50717 -14.4424
ltibia 30.4576
lfoot -13.2058 2.03738
ltoes -35.967
239
root 7.77784 19.8032 11.2272 -171.407 0.336826 180.085
lowerback 1.28508 2.93142 -2.81961
upperback 2.85269 4.00026 0.90772
thorax 1.95575 1.97514 2.51859
lowerneck -6.66541 -0.770263 -3.11414
upperneck 21.3146 -2.92948 5.11966
head 7.75836 -1.63838 1.89793
rclavicle 1.92821e-014 -7.15625e-015
rhumerus -14.3465 -5.67035 -87.8516
rradius 38.8829
rwrist -0.24127
rhand -18.6352 -34.6083
rfingers 7.12502
rthumb 7.65731 -64.4497
lclavicle 1.92821e-014 -7.15625e-015
lhumerus -39.5522 15.8081 71.1904
lradius 15.7074
lwrist -30.5886
lhand -25.4421 -21.8113
lfingers 7.12502
lthumb 1.08458 8.16566
rfemur -2.73881 2.81387 24.638
rtibia 12.9332
rfoot -23.3849 5.28935
rtoes -6.25051
lfemur -47.9582 -6.8293 -13.4305
ltibia 27.3395
lfoot -13.0749 1.778
ltoes -37.0351
240
root 7.77965 19.765 10.9473 -171.475 0.973205 180.23
lowerback 1.105 3.12932 -2.87954
upperback 2.93263 4.27469 0.781318
thorax 2.12734 2.109 2.43572
lowerneck -5.97746 -0.927529 -3.63286
upperneck 20.719 -3.14293 5.5835
head 7.46005 -1.74943 2.12332
rclavicle 2.8128e-014 -5.1684e-015
rhumerus -13.8448 -4.13836 -88.7653
rradius 39.8914
rwrist -1.02471
rhand -18.8318 -35.1598
rfingers 7.12502
rthumb 7.4675 -65.008
lclavicle 2.8128e-014 -5.1684e-015
lhumerus -39.9654 16.6823 70.1655
lradius 15.2335
lwrist -31.6304
lhand -24.9513 -20.3805
lfingers 7.12502
lthumb 1.55856 9.59356
rfemur -1.47384 2.61436 24.7071
rtibia 12.7316
rfoot -23.5661 5.9812
rtoes -8.30503
lfemur -48.2807 -7.11371 -12.3116
ltibia 24.5798
lfoot -12.7456 2.10789
ltoes -37.6608
241
root 7.78076 19.7327 10.6663 -171.624 1.74526 180.523
lowerback 1.06952 3.32004 -2.8849
upperback 3.03764 4.53836 0.74529
thorax 2.24203 2.24018 2.40817
lowerneck -5.60186 -0.992265 -3.97017
upperneck 20.3287 -3.19542 5.76408
head 7.27426 -1.78686 2.23706
rclavicle 1.2921e-015 -3.77691e-015
rhumerus -13.4418 -2.4113 -89.6099
rradius 40.8357
rwrist -1.95697
rhand -19.5036 -35.5749
rfingers 7.12502
rthumb 6.819 -65.4451
lclavicle 1.2921e-015 -3.77691e-015
lhumerus -40.3734 18.457 68.6913
lradius 14.4288
lwrist -33.7563
lhand -24.6334 -20.0225
lfingers 7.12502
lthumb 1.86565 9.94909
rfemur -0.260517 2.77736 24.9646
rtibia 12.8233
rfoot -23.7 6.37862
rtoes -8.99122
lfemur -48.3702 -7.06294 -11.1973
ltibia 22.5976
lfoot -12.4748 2.71647
ltoes -38.7541
242
root 7.77918 19.7077 10.378 -171.804 2.54902 180.754
lowerback 1.09925 3.58274 -2.89772
upperback 3.11083 4.89648 0.614822
thorax 2.28951 2.42064 2.28259
lowerneck -5.37457 -1.00403 -3.9741
upperneck 19.9205 -3.18564 5.87878
head 7.102 -1.76818 2.27676
rclavicle 1.44119e-014 7.95139e-016
rhumerus -13.224 -1.17694 -90.4302
rradius 41.7161
rwrist -2.64191
rhand -19.2383 -34.9098
rfingers 7.12502
rthumb 7.07513 -64.7716
lclavicle 1.44119e-014 7.95139e-016
lhumerus -40.7901 20.4197 66.9482
lradius 13.6065
lwrist -36.7184
lhand -24.4715 -20.1415
lfingers 7.12502
lthumb 2.02195 9.82868
rfemur 0.915491 3.08659 25.1431
rtibia 13.1797
rfoot -23.804 6.40949
rtoes -12.5352
lfemur -48.3022 -6.78715 -10.5245
ltibia 21.3979
lfoot -12.058 3.25474
ltoes -37.5414
